<mxfile host="Electron" agent="Mozilla/5.0 (X11; Linux x86_64) AppleWebKit/537.36 (KHTML, like Gecko) draw.io/24.7.17 Chrome/128.0.6613.36 Electron/32.0.1 Safari/537.36" version="24.7.17">
  <diagram id="C5RBs43oDa-KdzZeNtuy" name="Page-1">
    <mxGraphModel dx="1195" dy="704" grid="1" gridSize="10" guides="1" tooltips="1" connect="1" arrows="1" fold="1" page="1" pageScale="1" pageWidth="5000" pageHeight="5000" math="0" shadow="0">
      <root>
        <mxCell id="WIyWlLk6GJQsqaUBKTNV-0" />
        <mxCell id="WIyWlLk6GJQsqaUBKTNV-1" parent="WIyWlLk6GJQsqaUBKTNV-0" />
        <mxCell id="S5NlNBrOPDAlS5kl1jgC-36" value="Venda" style="swimlane;fontStyle=0;childLayout=stackLayout;horizontal=1;startSize=26;fillColor=none;horizontalStack=0;resizeParent=1;resizeParentMax=0;resizeLast=0;collapsible=1;marginBottom=0;whiteSpace=wrap;html=1;" parent="WIyWlLk6GJQsqaUBKTNV-1" vertex="1">
          <mxGeometry x="1710" y="2310" width="140" height="48" as="geometry" />
        </mxCell>
        <mxCell id="AroC4z26SkDrhtmdcJUx-7" value="+ qtdProduto: Integer" style="text;strokeColor=none;fillColor=none;align=left;verticalAlign=top;spacingLeft=4;spacingRight=4;overflow=hidden;rotatable=0;points=[[0,0.5],[1,0.5]];portConstraint=eastwest;whiteSpace=wrap;html=1;" parent="S5NlNBrOPDAlS5kl1jgC-36" vertex="1">
          <mxGeometry y="26" width="140" height="22" as="geometry" />
        </mxCell>
        <mxCell id="S5NlNBrOPDAlS5kl1jgC-80" value="TabelaVenda" style="swimlane;fontStyle=0;childLayout=stackLayout;horizontal=1;startSize=26;fillColor=none;horizontalStack=0;resizeParent=1;resizeParentMax=0;resizeLast=0;collapsible=1;marginBottom=0;whiteSpace=wrap;html=1;" parent="WIyWlLk6GJQsqaUBKTNV-1" vertex="1">
          <mxGeometry x="1510" y="2290" width="140" height="52" as="geometry" />
        </mxCell>
        <mxCell id="S5NlNBrOPDAlS5kl1jgC-81" value="+ qtdVenda: Integer" style="text;strokeColor=none;fillColor=none;align=left;verticalAlign=top;spacingLeft=4;spacingRight=4;overflow=hidden;rotatable=0;points=[[0,0.5],[1,0.5]];portConstraint=eastwest;whiteSpace=wrap;html=1;" parent="S5NlNBrOPDAlS5kl1jgC-80" vertex="1">
          <mxGeometry y="26" width="140" height="26" as="geometry" />
        </mxCell>
        <mxCell id="IJzy_CR9gzLhfkeMkCAJ-43" value="Usuario" style="swimlane;fontStyle=0;childLayout=stackLayout;horizontal=1;startSize=26;fillColor=none;horizontalStack=0;resizeParent=1;resizeParentMax=0;resizeLast=0;collapsible=1;marginBottom=0;whiteSpace=wrap;html=1;" parent="WIyWlLk6GJQsqaUBKTNV-1" vertex="1">
          <mxGeometry x="2040" y="2282" width="140" height="104" as="geometry" />
        </mxCell>
        <mxCell id="AroC4z26SkDrhtmdcJUx-23" value="+ nome: String" style="text;strokeColor=none;fillColor=none;align=left;verticalAlign=top;spacingLeft=4;spacingRight=4;overflow=hidden;rotatable=0;points=[[0,0.5],[1,0.5]];portConstraint=eastwest;whiteSpace=wrap;html=1;" parent="IJzy_CR9gzLhfkeMkCAJ-43" vertex="1">
          <mxGeometry y="26" width="140" height="26" as="geometry" />
        </mxCell>
        <mxCell id="AroC4z26SkDrhtmdcJUx-24" value="+ cpf: String" style="text;strokeColor=none;fillColor=none;align=left;verticalAlign=top;spacingLeft=4;spacingRight=4;overflow=hidden;rotatable=0;points=[[0,0.5],[1,0.5]];portConstraint=eastwest;whiteSpace=wrap;html=1;" parent="IJzy_CR9gzLhfkeMkCAJ-43" vertex="1">
          <mxGeometry y="52" width="140" height="26" as="geometry" />
        </mxCell>
        <mxCell id="AroC4z26SkDrhtmdcJUx-22" value="+ id: Long" style="text;strokeColor=none;fillColor=none;align=left;verticalAlign=top;spacingLeft=4;spacingRight=4;overflow=hidden;rotatable=0;points=[[0,0.5],[1,0.5]];portConstraint=eastwest;whiteSpace=wrap;html=1;" parent="IJzy_CR9gzLhfkeMkCAJ-43" vertex="1">
          <mxGeometry y="78" width="140" height="26" as="geometry" />
        </mxCell>
        <mxCell id="IJzy_CR9gzLhfkeMkCAJ-49" value="FavoritoLoja" style="swimlane;fontStyle=0;childLayout=stackLayout;horizontal=1;startSize=26;fillColor=none;horizontalStack=0;resizeParent=1;resizeParentMax=0;resizeLast=0;collapsible=1;marginBottom=0;whiteSpace=wrap;html=1;" parent="WIyWlLk6GJQsqaUBKTNV-1" vertex="1">
          <mxGeometry x="1960" y="2051" width="140" height="52" as="geometry" />
        </mxCell>
        <mxCell id="IJzy_CR9gzLhfkeMkCAJ-62" value="Loja" style="swimlane;fontStyle=0;childLayout=stackLayout;horizontal=1;startSize=26;fillColor=none;horizontalStack=0;resizeParent=1;resizeParentMax=0;resizeLast=0;collapsible=1;marginBottom=0;whiteSpace=wrap;html=1;" parent="WIyWlLk6GJQsqaUBKTNV-1" vertex="1">
          <mxGeometry x="1700" y="2025" width="140" height="78" as="geometry" />
        </mxCell>
        <mxCell id="AroC4z26SkDrhtmdcJUx-28" value="+ nome: String" style="text;strokeColor=none;fillColor=none;align=left;verticalAlign=top;spacingLeft=4;spacingRight=4;overflow=hidden;rotatable=0;points=[[0,0.5],[1,0.5]];portConstraint=eastwest;whiteSpace=wrap;html=1;" parent="IJzy_CR9gzLhfkeMkCAJ-62" vertex="1">
          <mxGeometry y="26" width="140" height="26" as="geometry" />
        </mxCell>
        <mxCell id="AroC4z26SkDrhtmdcJUx-29" value="+ id: Long" style="text;strokeColor=none;fillColor=none;align=left;verticalAlign=top;spacingLeft=4;spacingRight=4;overflow=hidden;rotatable=0;points=[[0,0.5],[1,0.5]];portConstraint=eastwest;whiteSpace=wrap;html=1;" parent="IJzy_CR9gzLhfkeMkCAJ-62" vertex="1">
          <mxGeometry y="52" width="140" height="26" as="geometry" />
        </mxCell>
        <mxCell id="IJzy_CR9gzLhfkeMkCAJ-66" value="Avaliacao" style="swimlane;fontStyle=0;childLayout=stackLayout;horizontal=1;startSize=26;fillColor=none;horizontalStack=0;resizeParent=1;resizeParentMax=0;resizeLast=0;collapsible=1;marginBottom=0;whiteSpace=wrap;html=1;" parent="WIyWlLk6GJQsqaUBKTNV-1" vertex="1">
          <mxGeometry x="1820" y="2160" width="140" height="78" as="geometry" />
        </mxCell>
        <mxCell id="IJzy_CR9gzLhfkeMkCAJ-67" value="+ nota: Integer" style="text;strokeColor=none;fillColor=none;align=left;verticalAlign=top;spacingLeft=4;spacingRight=4;overflow=hidden;rotatable=0;points=[[0,0.5],[1,0.5]];portConstraint=eastwest;whiteSpace=wrap;html=1;" parent="IJzy_CR9gzLhfkeMkCAJ-66" vertex="1">
          <mxGeometry y="26" width="140" height="26" as="geometry" />
        </mxCell>
        <mxCell id="IJzy_CR9gzLhfkeMkCAJ-68" value="+ corpo: String" style="text;strokeColor=none;fillColor=none;align=left;verticalAlign=top;spacingLeft=4;spacingRight=4;overflow=hidden;rotatable=0;points=[[0,0.5],[1,0.5]];portConstraint=eastwest;whiteSpace=wrap;html=1;" parent="IJzy_CR9gzLhfkeMkCAJ-66" vertex="1">
          <mxGeometry y="52" width="140" height="26" as="geometry" />
        </mxCell>
        <mxCell id="IJzy_CR9gzLhfkeMkCAJ-70" value="Local" style="swimlane;fontStyle=0;childLayout=stackLayout;horizontal=1;startSize=26;fillColor=none;horizontalStack=0;resizeParent=1;resizeParentMax=0;resizeLast=0;collapsible=1;marginBottom=0;whiteSpace=wrap;html=1;" parent="WIyWlLk6GJQsqaUBKTNV-1" vertex="1">
          <mxGeometry x="1650" y="2175" width="140" height="104" as="geometry" />
        </mxCell>
        <mxCell id="AroC4z26SkDrhtmdcJUx-2" value="+ endereco: String" style="text;strokeColor=none;fillColor=none;align=left;verticalAlign=top;spacingLeft=4;spacingRight=4;overflow=hidden;rotatable=0;points=[[0,0.5],[1,0.5]];portConstraint=eastwest;whiteSpace=wrap;html=1;" parent="IJzy_CR9gzLhfkeMkCAJ-70" vertex="1">
          <mxGeometry y="26" width="140" height="26" as="geometry" />
        </mxCell>
        <mxCell id="AroC4z26SkDrhtmdcJUx-1" value="+ longitude: Double" style="text;strokeColor=none;fillColor=none;align=left;verticalAlign=top;spacingLeft=4;spacingRight=4;overflow=hidden;rotatable=0;points=[[0,0.5],[1,0.5]];portConstraint=eastwest;whiteSpace=wrap;html=1;" parent="IJzy_CR9gzLhfkeMkCAJ-70" vertex="1">
          <mxGeometry y="52" width="140" height="26" as="geometry" />
        </mxCell>
        <mxCell id="AroC4z26SkDrhtmdcJUx-0" value="+ latitude: Double" style="text;strokeColor=none;fillColor=none;align=left;verticalAlign=top;spacingLeft=4;spacingRight=4;overflow=hidden;rotatable=0;points=[[0,0.5],[1,0.5]];portConstraint=eastwest;whiteSpace=wrap;html=1;" parent="IJzy_CR9gzLhfkeMkCAJ-70" vertex="1">
          <mxGeometry y="78" width="140" height="26" as="geometry" />
        </mxCell>
        <mxCell id="IJzy_CR9gzLhfkeMkCAJ-75" value="" style="endArrow=diamondThin;html=1;endSize=12;startArrow=diamondThin;startSize=14;startFill=1;edgeStyle=orthogonalEdgeStyle;align=left;verticalAlign=bottom;rounded=0;entryX=1;entryY=0.5;entryDx=0;entryDy=0;exitX=0;exitY=0.25;exitDx=0;exitDy=0;endFill=1;" parent="WIyWlLk6GJQsqaUBKTNV-1" source="IJzy_CR9gzLhfkeMkCAJ-49" target="IJzy_CR9gzLhfkeMkCAJ-62" edge="1">
          <mxGeometry x="-1" y="3" relative="1" as="geometry">
            <mxPoint x="2290" y="2230" as="sourcePoint" />
            <mxPoint x="2260" y="2390" as="targetPoint" />
            <Array as="points">
              <mxPoint x="1930" y="2064" />
            </Array>
          </mxGeometry>
        </mxCell>
        <mxCell id="IJzy_CR9gzLhfkeMkCAJ-76" value="" style="endArrow=block;endFill=1;html=1;edgeStyle=orthogonalEdgeStyle;align=left;verticalAlign=top;rounded=0;exitX=0.25;exitY=1;exitDx=0;exitDy=0;entryX=0.5;entryY=0;entryDx=0;entryDy=0;" parent="WIyWlLk6GJQsqaUBKTNV-1" source="IJzy_CR9gzLhfkeMkCAJ-62" target="IJzy_CR9gzLhfkeMkCAJ-70" edge="1">
          <mxGeometry x="-1" relative="1" as="geometry">
            <mxPoint x="2010" y="2225" as="sourcePoint" />
            <mxPoint x="2170" y="2225" as="targetPoint" />
          </mxGeometry>
        </mxCell>
        <mxCell id="IJzy_CR9gzLhfkeMkCAJ-79" value="" style="endArrow=open;html=1;endSize=12;startArrow=diamondThin;startSize=14;startFill=1;edgeStyle=orthogonalEdgeStyle;align=left;verticalAlign=bottom;rounded=0;exitX=0.5;exitY=0;exitDx=0;exitDy=0;entryX=0.75;entryY=1;entryDx=0;entryDy=0;" parent="WIyWlLk6GJQsqaUBKTNV-1" source="IJzy_CR9gzLhfkeMkCAJ-66" target="IJzy_CR9gzLhfkeMkCAJ-62" edge="1">
          <mxGeometry x="-1" y="3" relative="1" as="geometry">
            <mxPoint x="1840" y="2155" as="sourcePoint" />
            <mxPoint x="2000" y="2155" as="targetPoint" />
          </mxGeometry>
        </mxCell>
        <mxCell id="IJzy_CR9gzLhfkeMkCAJ-93" value="" style="endArrow=block;endFill=1;html=1;edgeStyle=orthogonalEdgeStyle;align=left;verticalAlign=top;rounded=0;exitX=0;exitY=0.25;exitDx=0;exitDy=0;entryX=0;entryY=0.25;entryDx=0;entryDy=0;" parent="WIyWlLk6GJQsqaUBKTNV-1" source="IJzy_CR9gzLhfkeMkCAJ-62" target="S5NlNBrOPDAlS5kl1jgC-80" edge="1">
          <mxGeometry x="-1" relative="1" as="geometry">
            <mxPoint x="1780" y="2390" as="sourcePoint" />
            <mxPoint x="1940" y="2390" as="targetPoint" />
            <Array as="points">
              <mxPoint x="1700" y="2043" />
              <mxPoint x="1490" y="2043" />
              <mxPoint x="1490" y="2303" />
            </Array>
          </mxGeometry>
        </mxCell>
        <mxCell id="IJzy_CR9gzLhfkeMkCAJ-97" value="" style="endArrow=open;html=1;endSize=12;startArrow=diamondThin;startSize=14;startFill=1;edgeStyle=orthogonalEdgeStyle;align=left;verticalAlign=bottom;rounded=0;exitX=0;exitY=0.5;exitDx=0;exitDy=0;entryX=1;entryY=0.25;entryDx=0;entryDy=0;" parent="WIyWlLk6GJQsqaUBKTNV-1" source="S5NlNBrOPDAlS5kl1jgC-36" target="S5NlNBrOPDAlS5kl1jgC-80" edge="1">
          <mxGeometry x="-1" y="3" relative="1" as="geometry">
            <mxPoint x="1670" y="2580" as="sourcePoint" />
            <mxPoint x="1830" y="2580" as="targetPoint" />
          </mxGeometry>
        </mxCell>
        <mxCell id="IJzy_CR9gzLhfkeMkCAJ-98" value="" style="endArrow=block;endFill=1;html=1;edgeStyle=orthogonalEdgeStyle;align=left;verticalAlign=top;rounded=0;exitX=1;exitY=0.5;exitDx=0;exitDy=0;entryX=0;entryY=0.5;entryDx=0;entryDy=0;" parent="WIyWlLk6GJQsqaUBKTNV-1" source="S5NlNBrOPDAlS5kl1jgC-36" target="IJzy_CR9gzLhfkeMkCAJ-43" edge="1">
          <mxGeometry x="-1" relative="1" as="geometry">
            <mxPoint x="1940" y="2540" as="sourcePoint" />
            <mxPoint x="2030" y="2550" as="targetPoint" />
            <Array as="points">
              <mxPoint x="1850" y="2340" />
              <mxPoint x="1950" y="2340" />
              <mxPoint x="1950" y="2334" />
            </Array>
          </mxGeometry>
        </mxCell>
        <mxCell id="IJzy_CR9gzLhfkeMkCAJ-105" value="PrecoFinal" style="swimlane;fontStyle=0;childLayout=stackLayout;horizontal=1;startSize=26;fillColor=none;horizontalStack=0;resizeParent=1;resizeParentMax=0;resizeLast=0;collapsible=1;marginBottom=0;whiteSpace=wrap;html=1;" parent="WIyWlLk6GJQsqaUBKTNV-1" vertex="1">
          <mxGeometry x="1560" y="2470" width="140" height="52" as="geometry" />
        </mxCell>
        <mxCell id="AroC4z26SkDrhtmdcJUx-42" value="+ preco: Double" style="text;strokeColor=none;fillColor=none;align=left;verticalAlign=top;spacingLeft=4;spacingRight=4;overflow=hidden;rotatable=0;points=[[0,0.5],[1,0.5]];portConstraint=eastwest;whiteSpace=wrap;html=1;" parent="IJzy_CR9gzLhfkeMkCAJ-105" vertex="1">
          <mxGeometry y="26" width="140" height="26" as="geometry" />
        </mxCell>
        <mxCell id="IJzy_CR9gzLhfkeMkCAJ-111" value="" style="endArrow=block;endFill=1;html=1;edgeStyle=orthogonalEdgeStyle;align=left;verticalAlign=top;rounded=0;exitX=0.25;exitY=1;exitDx=0;exitDy=0;entryX=0.25;entryY=0;entryDx=0;entryDy=0;" parent="WIyWlLk6GJQsqaUBKTNV-1" source="S5NlNBrOPDAlS5kl1jgC-36" target="IJzy_CR9gzLhfkeMkCAJ-105" edge="1">
          <mxGeometry x="-1" relative="1" as="geometry">
            <mxPoint x="1980" y="2600" as="sourcePoint" />
            <mxPoint x="2140" y="2600" as="targetPoint" />
          </mxGeometry>
        </mxCell>
        <mxCell id="IJzy_CR9gzLhfkeMkCAJ-115" value="" style="endArrow=block;endFill=1;html=1;edgeStyle=orthogonalEdgeStyle;align=left;verticalAlign=top;rounded=0;exitX=0.25;exitY=0;exitDx=0;exitDy=0;entryX=0.5;entryY=1;entryDx=0;entryDy=0;" parent="WIyWlLk6GJQsqaUBKTNV-1" source="S5NlNBrOPDAlS5kl1jgC-36" target="IJzy_CR9gzLhfkeMkCAJ-70" edge="1">
          <mxGeometry x="-1" relative="1" as="geometry">
            <mxPoint x="1930" y="2600" as="sourcePoint" />
            <mxPoint x="1780" y="2310" as="targetPoint" />
          </mxGeometry>
        </mxCell>
        <mxCell id="IJzy_CR9gzLhfkeMkCAJ-117" value="DataCompra" style="swimlane;fontStyle=0;childLayout=stackLayout;horizontal=1;startSize=26;fillColor=none;horizontalStack=0;resizeParent=1;resizeParentMax=0;resizeLast=0;collapsible=1;marginBottom=0;whiteSpace=wrap;html=1;" parent="WIyWlLk6GJQsqaUBKTNV-1" vertex="1">
          <mxGeometry x="1730" y="2470" width="140" height="60" as="geometry" />
        </mxCell>
        <mxCell id="IJzy_CR9gzLhfkeMkCAJ-125" value="DataEntrega" style="swimlane;fontStyle=0;childLayout=stackLayout;horizontal=1;startSize=26;fillColor=none;horizontalStack=0;resizeParent=1;resizeParentMax=0;resizeLast=0;collapsible=1;marginBottom=0;whiteSpace=wrap;html=1;" parent="WIyWlLk6GJQsqaUBKTNV-1" vertex="1">
          <mxGeometry x="1900" y="2470" width="140" height="52" as="geometry" />
        </mxCell>
        <mxCell id="IJzy_CR9gzLhfkeMkCAJ-129" value="" style="endArrow=block;endFill=1;html=1;edgeStyle=orthogonalEdgeStyle;align=left;verticalAlign=top;rounded=0;exitX=0.25;exitY=1;exitDx=0;exitDy=0;entryX=0.25;entryY=0;entryDx=0;entryDy=0;" parent="WIyWlLk6GJQsqaUBKTNV-1" source="S5NlNBrOPDAlS5kl1jgC-36" target="IJzy_CR9gzLhfkeMkCAJ-125" edge="1">
          <mxGeometry x="-1" relative="1" as="geometry">
            <mxPoint x="2040" y="2720" as="sourcePoint" />
            <mxPoint x="2200" y="2720" as="targetPoint" />
          </mxGeometry>
        </mxCell>
        <mxCell id="IJzy_CR9gzLhfkeMkCAJ-131" value="" style="endArrow=block;endFill=1;html=1;edgeStyle=orthogonalEdgeStyle;align=left;verticalAlign=top;rounded=0;exitX=0.25;exitY=1;exitDx=0;exitDy=0;entryX=0.5;entryY=0;entryDx=0;entryDy=0;" parent="WIyWlLk6GJQsqaUBKTNV-1" source="S5NlNBrOPDAlS5kl1jgC-36" target="IJzy_CR9gzLhfkeMkCAJ-117" edge="1">
          <mxGeometry x="-1" relative="1" as="geometry">
            <mxPoint x="2040" y="2720" as="sourcePoint" />
            <mxPoint x="2200" y="2720" as="targetPoint" />
            <Array as="points">
              <mxPoint x="1745" y="2410" />
              <mxPoint x="1800" y="2410" />
            </Array>
          </mxGeometry>
        </mxCell>
        <mxCell id="AroC4z26SkDrhtmdcJUx-5" value="" style="endArrow=block;endFill=1;html=1;edgeStyle=orthogonalEdgeStyle;align=left;verticalAlign=top;rounded=0;entryX=0.25;entryY=0;entryDx=0;entryDy=0;exitX=1;exitY=0.25;exitDx=0;exitDy=0;" parent="WIyWlLk6GJQsqaUBKTNV-1" source="IJzy_CR9gzLhfkeMkCAJ-66" target="IJzy_CR9gzLhfkeMkCAJ-43" edge="1">
          <mxGeometry x="-1" relative="1" as="geometry">
            <mxPoint x="2020" y="2230" as="sourcePoint" />
            <mxPoint x="2180" y="2230" as="targetPoint" />
          </mxGeometry>
        </mxCell>
        <mxCell id="AroC4z26SkDrhtmdcJUx-35" value="1" style="text;html=1;align=center;verticalAlign=middle;resizable=0;points=[];autosize=1;strokeColor=none;fillColor=none;" parent="WIyWlLk6GJQsqaUBKTNV-1" vertex="1">
          <mxGeometry x="1845" y="2028" width="30" height="30" as="geometry" />
        </mxCell>
        <mxCell id="AroC4z26SkDrhtmdcJUx-36" value="1" style="text;html=1;align=center;verticalAlign=middle;resizable=0;points=[];autosize=1;strokeColor=none;fillColor=none;" parent="WIyWlLk6GJQsqaUBKTNV-1" vertex="1">
          <mxGeometry x="2070" y="2238" width="30" height="30" as="geometry" />
        </mxCell>
        <mxCell id="AroC4z26SkDrhtmdcJUx-38" value="0..n" style="text;html=1;align=center;verticalAlign=middle;resizable=0;points=[];autosize=1;strokeColor=none;fillColor=none;" parent="WIyWlLk6GJQsqaUBKTNV-1" vertex="1">
          <mxGeometry x="1910" y="2028" width="40" height="30" as="geometry" />
        </mxCell>
      </root>
    </mxGraphModel>
  </diagram>
</mxfile>
